<mxfile host="app.diagrams.net" modified="2024-02-13T22:51:33.601Z" agent="Mozilla/5.0 (Macintosh; Intel Mac OS X 10_15_7) AppleWebKit/537.36 (KHTML, like Gecko) Chrome/121.0.0.0 Safari/537.36" version="23.1.3" etag="ALpSJ-dHFSGxgmu63DJZ" type="github">
  <diagram name="Page-1" id="SIh1kHcxsE27lNAFwAeg">
    <mxGraphModel>
      <root>
        <mxCell id="0" />
        <mxCell id="1" parent="0" />
      </root>
    </mxGraphModel>
  </diagram>
</mxfile>
